<svg width="155" height="33" viewBox="0 0 155 33" fill="none" xmlns="http://www.w3.org/2000/svg">
<g id="Group 60">
<path id="Vector" d="M73.1277 7.1693C71.6071 11.2989 68.6486 14.5996 64.9024 16.3459C60.3456 18.4427 56.1053 17.2047 53.1504 16.3459C48.6787 15.0626 46.8892 13.2449 42.5659 10.5876C37.7342 7.62732 26.8071 0.931516 15.7578 3.32406C11.3756 4.27822 8.99247 6.21515 8.21118 6.90214C7.51064 7.5128 0.404869 13.8913 2.63743 20.6205C3.59985 23.5188 6.07683 25.8278 9.24344 26.8607C9.21716 27.0262 9.20184 27.1937 9.19761 27.3616C9.19277 28.2534 9.47998 29.1177 10.0073 29.7982C10.5347 30.4787 11.2673 30.9305 12.0729 31.072C12.8785 31.2135 13.7038 31.0353 14.3996 30.5696C15.0955 30.1039 15.6159 29.3815 15.867 28.533C16.118 27.6844 16.083 26.7658 15.7683 25.943C15.4536 25.1202 14.8799 24.4476 14.1511 24.0468C13.4222 23.646 12.5862 23.5434 11.7942 23.7576C11.0022 23.9718 10.3064 24.4887 9.83267 25.2148C9.40588 24.7931 9.03167 24.3119 8.71967 23.7835C8.02146 22.5307 7.66641 21.0854 7.69658 19.6189C7.72675 18.1523 8.14087 16.7259 8.88989 15.5086C9.62535 14.3565 10.6358 13.4524 11.7139 12.6843C14.8001 10.4843 18.3999 9.30023 22.0845 9.27323C27.44 9.24938 32.5467 11.6729 37.2541 14.4638C41.9614 17.2547 46.516 20.4798 51.6075 22.2974C56.6989 24.1151 62.5782 24.3489 67.1502 21.298C71.4015 18.4593 73.8283 13.3308 76.0499 8.45503L73.1277 7.1693Z" fill="#DBC089"/>
<path id="Vector_2" d="M8.21097 6.69087C8.99007 6.01103 11.3754 4.06694 15.7576 3.11279C26.8069 0.727397 37.734 7.40647 42.5657 10.3763C46.889 13.0241 48.6763 14.8513 53.1502 16.1322C56.1051 16.9814 60.352 18.2194 64.9022 16.1322C68.6483 14.3859 71.6068 11.0852 73.1275 6.95564L75.5914 8.04578C75.7442 7.71421 75.8991 7.38263 76.0497 7.05106L73.1275 5.75817C71.6068 9.88774 68.6483 13.1884 64.9022 14.9348C60.3454 17.0315 56.1051 15.7935 53.1502 14.9348C48.6785 13.6514 46.889 11.8338 42.5657 9.17645C37.734 6.21619 26.8069 -0.479617 15.7576 1.91293C11.3754 2.86708 8.99225 4.80402 8.21097 5.49101C7.58463 6.03726 1.83192 11.216 2.22911 17.1079C2.59356 11.7193 7.62609 7.20134 8.21097 6.69087Z" fill="#B7782A"/>
<path id="Vector_3" d="M20.3109 2.44548C29.5968 2.44548 38.1582 7.69332 42.2785 10.2147C46.6018 12.8625 48.3891 14.6897 52.863 15.973C54.6089 16.4739 56.8218 17.1156 59.2791 17.1156C61.1108 17.1286 62.926 16.7359 64.615 15.9611C68.3611 14.2147 71.3197 10.914 72.8403 6.78449L75.7625 8.07738C73.5409 12.9531 71.1141 18.0793 66.8628 20.9203C64.3946 22.5662 61.5444 23.2556 58.6441 23.2556C56.1539 23.2306 53.6827 22.7799 51.3201 21.9198C46.2286 20.1021 41.6762 16.8771 36.9667 14.0862C32.2571 11.2953 27.2071 8.89558 21.8822 8.89558H21.7971C18.1125 8.92257 14.5127 10.1066 11.4265 12.3067C10.3527 13.0748 9.33794 13.9764 8.60249 15.131C7.85347 16.3482 7.43935 17.7746 7.40918 19.2412C7.37901 20.7078 7.73406 22.1531 8.43226 23.4059C8.74426 23.9342 9.11847 24.4154 9.54527 24.8371C10.0166 24.1185 10.7074 23.6077 11.493 23.3969C12.2786 23.1861 13.1073 23.2891 13.8295 23.6875C14.5516 24.0858 15.1198 24.7532 15.4313 25.5692C15.7429 26.3852 15.7773 27.296 15.5285 28.1373C15.2796 28.9786 14.7638 29.695 14.0742 30.1571C13.3845 30.6193 12.5665 30.7967 11.7676 30.6575C10.9688 30.5183 10.2418 30.0716 9.71778 29.3979C9.19381 28.7243 8.90738 27.8682 8.9102 26.984C8.91444 26.816 8.92976 26.6486 8.95603 26.483C5.78942 25.4502 3.31244 23.1435 2.35002 20.2429C0.117463 13.5137 7.22324 7.13515 7.92378 6.52449C8.70288 5.84465 11.0882 3.90056 15.4704 2.9464C17.0649 2.60584 18.6861 2.43647 20.3109 2.4407M20.3109 0.532393C18.5726 0.528311 16.8381 0.70967 15.1321 1.07388C11.8586 1.7895 8.9844 3.14915 6.83914 5.02407C5.22536 6.46196 3.80003 8.13549 2.60317 9.99763C0.244041 13.7379 -0.408486 17.5044 0.713248 20.8869C1.72368 23.9307 4.11337 26.4544 7.2276 27.8331C7.39096 29.0241 7.899 30.1266 8.67728 30.9791C9.45555 31.8315 10.4632 32.3891 11.5524 32.5701C12.6417 32.7511 13.7554 32.546 14.7303 31.9849C15.7052 31.4238 16.49 30.5362 16.9698 29.4521C17.4496 28.3679 17.5991 27.1444 17.3965 25.9607C17.1938 24.7769 16.6496 23.6952 15.8436 22.8741C15.0377 22.053 14.0123 21.5356 12.9177 21.3978C11.8232 21.26 10.717 21.5089 9.76132 22.1082C9.32387 21.1895 9.11909 20.1597 9.16821 19.1255C9.21732 18.0912 9.51854 17.0901 10.0407 16.2259C10.5492 15.4268 11.2955 14.6897 12.3889 13.9073C15.1935 11.9122 18.4619 10.8362 21.808 10.8062H21.8865C27.0718 10.8062 32.0018 13.3133 36.1395 15.7655C37.2307 16.4119 38.3219 17.0941 39.3978 17.7549C42.9943 19.9828 46.7153 22.2871 50.7832 23.7351C53.3168 24.6612 55.9683 25.1443 58.6397 25.1663C62.0966 25.1663 65.1671 24.2861 67.7685 22.5424C72.5697 19.3316 75.2082 13.559 77.3207 8.9242C77.4286 8.68853 77.4908 8.43096 77.5031 8.16776C77.5155 7.90456 77.4778 7.64141 77.3925 7.3949C77.3072 7.14839 77.1762 6.92385 77.0076 6.73545C76.8389 6.54705 76.6365 6.3989 76.4129 6.30027L73.4907 5.00977C73.2774 4.91558 73.0491 4.86837 72.8191 4.8709C72.5891 4.87343 72.3618 4.92564 72.1502 5.02451C71.9387 5.12337 71.7471 5.26697 71.5866 5.44701C71.426 5.62706 71.2995 5.84001 71.2145 6.07364C69.8562 9.71718 67.2411 12.6304 63.9341 14.184C62.4594 14.8608 60.8741 15.2025 59.2748 15.1882C57.0706 15.1882 55.0148 14.599 53.3627 14.1243L53.3016 14.1076C50.29 13.2441 48.5943 12.1111 46.2461 10.5462C45.3469 9.94513 44.3278 9.26531 43.1275 8.53061C38.8828 5.93053 30.0486 0.518066 20.3065 0.518066L20.3109 0.532393Z" fill="#B7782A"/>
<path id="Vector_4" d="M81.89 7.1693C83.4106 11.2989 86.3691 14.5996 90.1153 16.3459C94.6721 18.4427 98.9124 17.2047 101.867 16.3459C106.339 15.0626 108.128 13.2449 112.452 10.5876C117.284 7.62732 128.211 0.931516 139.26 3.32406C143.642 4.27822 146.025 6.21515 146.807 6.90214C147.507 7.5128 154.613 13.8913 152.38 20.6205C151.418 23.5188 148.941 25.8278 145.774 26.8607C145.801 27.0263 145.816 27.1937 145.82 27.3616C145.825 28.2534 145.538 29.1177 145.01 29.7982C144.483 30.4787 143.75 30.9305 142.945 31.072C142.139 31.2135 141.314 31.0353 140.618 30.5696C139.922 30.1039 139.402 29.3816 139.151 28.533C138.9 27.6844 138.935 26.7658 139.249 25.943C139.564 25.1202 140.138 24.4476 140.867 24.0468C141.595 23.646 142.431 23.5434 143.223 23.7576C144.015 23.9718 144.711 24.4887 145.185 25.2148C145.612 24.7931 145.986 24.3119 146.298 23.7835C146.997 22.5309 147.352 21.0855 147.322 19.6188C147.292 18.1521 146.877 16.7257 146.128 15.5086C145.392 14.3565 144.382 13.4524 143.304 12.6843C140.218 10.4843 136.618 9.30023 132.933 9.27323C127.578 9.24938 122.471 11.6729 117.764 14.4638C113.056 17.2547 108.502 20.4798 103.41 22.2974C98.3188 24.1151 92.4395 24.3489 87.8675 21.298C83.6162 18.4593 81.1894 13.3308 78.9678 8.45503L81.89 7.1693Z" fill="#DBC089"/>
<path id="Vector_5" d="M146.807 6.69087C146.027 6.01103 143.642 4.06694 139.26 3.11279C128.211 0.727397 117.284 7.40647 112.452 10.3763C108.128 13.0241 106.341 14.8513 101.867 16.1322C98.9124 16.9814 94.6655 18.2194 90.1153 16.1322C86.3691 14.3859 83.4106 11.0852 81.89 6.95564L79.4261 8.04578C79.2733 7.71421 79.1184 7.38263 78.9678 7.05106L81.89 5.75817C83.4106 9.88774 86.3691 13.1884 90.1153 14.9348C94.6721 17.0315 98.9124 15.7935 101.867 14.9348C106.339 13.6514 108.128 11.8338 112.452 9.17645C117.284 6.21619 128.211 -0.479617 139.26 1.91293C143.642 2.86708 146.025 4.80402 146.807 5.49101C147.433 6.03726 153.186 11.216 152.788 17.1079C152.424 11.7193 147.391 7.20134 146.807 6.69087Z" fill="#B7782A"/>
<path id="Vector_6" d="M134.132 2.44553C135.757 2.44119 137.378 2.61056 138.972 2.95123C143.355 3.90538 145.738 5.84232 146.519 6.52931C147.22 7.13997 154.325 13.5185 152.093 20.2477C151.13 23.1459 148.653 25.455 145.487 26.4879C145.513 26.6534 145.528 26.8208 145.533 26.9888C145.538 27.8806 145.25 28.7448 144.723 29.4253C144.196 30.1058 143.463 30.5576 142.657 30.6991C141.852 30.8406 141.027 30.6624 140.331 30.1968C139.635 29.7311 139.114 29.0087 138.863 28.1602C138.612 27.3116 138.647 26.3929 138.962 25.5701C139.277 24.7473 139.85 24.0747 140.579 23.6739C141.308 23.2731 142.144 23.1706 142.936 23.3848C143.728 23.599 144.424 24.1159 144.898 24.8419C145.324 24.4203 145.699 23.939 146.011 23.4107C146.709 22.1581 147.065 20.7127 147.035 19.246C147.004 17.7793 146.59 16.3528 145.84 15.1358C145.105 13.9836 144.095 13.0796 143.016 12.3115C139.93 10.1114 136.33 8.92737 132.646 8.90037H132.561C127.236 8.90037 122.16 11.3144 117.476 14.091C112.793 16.8676 108.214 20.1069 103.123 21.9246C100.76 22.7849 98.289 23.2356 95.7988 23.2604C92.8985 23.2604 90.0483 22.571 87.5801 20.9251C83.3288 18.0841 80.902 12.9579 78.6804 8.0822L81.6026 6.78931C83.1232 10.9189 86.0817 14.2195 89.8279 15.9659C91.5169 16.7407 93.3321 17.1334 95.1638 17.1204C97.6211 17.1204 99.8275 16.4788 101.58 15.9778C106.052 14.6945 107.841 12.8768 112.164 10.2195C116.287 7.69337 124.846 2.4503 134.132 2.4503M134.132 0.541992C124.39 0.541992 115.556 5.95443 111.311 8.5545C110.111 9.2892 109.092 9.96903 108.192 10.5701C105.844 12.135 104.149 13.268 101.137 14.1315L101.078 14.1482C99.4237 14.6253 97.3679 15.2121 95.1638 15.2121C93.5644 15.2264 91.9791 14.8847 90.5044 14.2079C87.1974 12.6543 84.5823 9.74108 83.2241 6.09754C83.139 5.8639 83.0126 5.65096 82.852 5.47091C82.6914 5.29086 82.4998 5.14727 82.2883 5.0484C82.0768 4.94954 81.8495 4.89736 81.6194 4.89483C81.3894 4.8923 81.1611 4.93948 80.9478 5.03367L78.0257 6.32417C77.8021 6.42279 77.5996 6.57095 77.431 6.75935C77.2623 6.94774 77.1313 7.17228 77.046 7.41879C76.9607 7.66531 76.923 7.92845 76.9354 8.19166C76.9478 8.45486 77.0099 8.71243 77.1178 8.9481C79.2303 13.5829 81.8601 19.3555 86.67 22.5663C89.2714 24.3028 92.3441 25.1902 95.7988 25.1902C98.4703 25.1682 101.122 24.6851 103.655 23.759C107.723 22.3086 111.444 20.0068 115.041 17.7788C116.108 17.1181 117.212 16.4358 118.299 15.7894C122.445 13.3372 127.367 10.8302 132.552 10.8302H132.631C135.977 10.8601 139.245 11.9361 142.05 13.9312C143.141 14.7136 143.889 15.4507 144.398 16.2498C144.92 17.114 145.221 18.1151 145.27 19.1494C145.319 20.1836 145.115 21.2135 144.677 22.1321C143.724 21.5372 142.622 21.2914 141.531 21.4305C140.441 21.5696 139.42 22.0864 138.618 22.9053C137.816 23.7242 137.275 24.8022 137.073 25.9816C136.872 27.161 137.021 28.3799 137.499 29.4599C137.977 30.5399 138.759 31.4244 139.73 31.9839C140.701 32.5434 141.81 32.7486 142.895 32.5695C143.981 32.3904 144.985 31.8363 145.762 30.9884C146.538 30.1405 147.046 29.0432 147.211 27.8571C150.325 26.4783 152.715 23.9546 153.725 20.9108C154.847 17.5283 154.194 13.7547 151.835 10.0215C150.639 8.15935 149.214 6.4865 147.599 5.05035C145.45 3.17305 142.58 1.80862 139.306 1.09778C137.6 0.733567 135.866 0.552208 134.128 0.556289L134.132 0.541992Z" fill="#B7782A"/>
<path id="Vector_7" d="M77.5101 23.7176C83.0701 23.7176 87.5773 18.791 87.5773 12.7138C87.5773 6.63653 83.0701 1.70996 77.5101 1.70996C71.9501 1.70996 67.4429 6.63653 67.4429 12.7138C67.4429 18.791 71.9501 23.7176 77.5101 23.7176Z" fill="#DBC089"/>
<path id="Vector_8" d="M83.4254 12.9092C83.4254 16.2866 80.9951 18.7482 78.3204 18.7482C75.6457 18.7482 73.2153 16.2866 73.2153 12.9092C73.2153 9.53193 75.6457 7.07031 78.3204 7.07031C80.9951 7.07031 83.4254 9.53193 83.4254 12.9092Z" stroke="#B7782A" stroke-width="3"/>
<path id="Vector_9" d="M77.5099 3.27958C80.0557 3.27808 82.5074 4.33183 84.3704 6.22829C86.2335 8.12475 87.3693 10.7229 87.5488 13.4986C87.5662 13.2386 87.5859 12.9786 87.5859 12.7138C87.5469 9.82315 86.469 7.06532 84.5851 5.03621C82.7011 3.0071 80.1625 1.86963 77.5175 1.86963C74.8726 1.86963 72.3339 3.0071 70.45 5.03621C68.5661 7.06532 67.4882 9.82315 67.4492 12.7138C67.4492 12.9786 67.4689 13.2386 67.4863 13.4986C67.6661 10.7259 68.8 8.13054 70.6596 6.23461C72.5193 4.33868 74.9669 3.28287 77.5099 3.27958Z" fill="#B7782A"/>
<path id="Vector_10" d="M78.2795 3.35923C80.1261 3.35923 81.9313 3.94219 83.4667 5.03437C85.0021 6.12655 86.1988 7.67891 86.9054 9.49511C87.612 11.3113 87.7968 13.3098 87.4363 15.2378C87.0759 17.1658 86.1865 18.9367 84.8806 20.3265C83.5747 21.7164 81.9109 22.6628 80.0997 23.0461C78.2884 23.4293 76.4111 23.2322 74.7052 22.4796C72.9992 21.727 71.5412 20.4528 70.5155 18.8181C69.4899 17.1834 68.9426 15.2617 68.943 13.2959C68.943 11.9908 69.1845 10.6985 69.6538 9.49277C70.123 8.28706 70.8107 7.19155 71.6777 6.26882C72.5447 5.34609 73.574 4.61422 74.7067 4.11498C75.8394 3.61575 77.0535 3.35894 78.2795 3.35923ZM78.2795 1.63599C76.1126 1.63599 73.9945 2.32 72.1928 3.60153C70.3912 4.88306 68.9871 6.70456 68.1579 8.83564C67.3288 10.9667 67.112 13.3117 67.5349 15.5739C67.9577 17.8362 69.0013 19.9142 70.5337 21.5451C72.066 23.1759 74.0182 24.2865 76.1434 24.7362C78.2687 25.186 80.4715 24.9547 82.4732 24.0717C84.475 23.1887 86.1859 21.6936 87.3894 19.7755C88.5929 17.8574 89.2351 15.6025 89.2347 13.2959C89.2309 10.2047 88.0758 7.24127 86.0224 5.05549C83.9691 2.8697 81.1853 1.63998 78.2815 1.63599H78.2795Z" fill="#B7782A"/>
</g>
</svg>
