<svg width="161" height="91" viewBox="0 0 161 91" fill="none" xmlns="http://www.w3.org/2000/svg">
<g id="OBJECTS" clip-path="url(#clip0_173_69)">
<path id="Vector" d="M44.4444 75.9179C43.5101 77.228 42.5436 78.5207 41.6415 79.8657C39.7682 82.9168 37.3126 85.4962 34.4409 87.4296C33.4184 88.1512 32.2665 88.6296 31.0611 88.8334C29.8557 89.0371 28.6241 88.9615 27.4476 88.6116C26.2711 88.2617 25.1763 87.6455 24.2354 86.8034C23.2945 85.9613 22.5288 84.9125 21.9888 83.7262C21.2156 82.2065 20.7807 82.1017 19.5081 83.0624C19.1859 83.3245 18.8798 83.6389 18.5576 83.9009C17.2461 84.9655 15.7466 85.7258 14.1523 86.1347C12.5581 86.5436 10.9033 86.5923 9.29098 86.2776C7.67865 85.963 6.14329 85.2919 4.78049 84.306C3.4177 83.3201 2.25665 82.0405 1.3696 80.547C0.68233 79.3043 0.248416 77.9165 0.097016 76.4769C-0.0638428 74.6868 0.105419 72.8798 0.594934 71.1614C1.08445 69.4429 1.88443 67.8473 2.94827 66.4674C5.5618 62.5961 9.33881 59.8346 13.6284 58.659C15.5453 58.135 15.7064 57.7158 14.9815 55.7942C13.5055 52.0838 12.9985 48.0048 13.5156 44.003C13.7581 41.4888 14.4736 39.0552 15.6179 36.8528C16.7622 34.6504 18.311 32.726 20.1685 31.1986C23.3073 28.5825 26.9429 26.7553 30.8125 25.849C34.682 24.9427 38.6889 24.9799 42.5436 25.9581L43.9773 26.1503C43.3168 25.0323 42.9141 24.4034 42.4953 23.6697C39.2735 18.4292 39.9179 12.6646 44.1062 8.96133C45.5439 7.67829 47.2348 6.77139 49.0478 6.31094C50.8607 5.8505 52.7471 5.84883 54.5607 6.30609C59.7639 7.42407 63.4528 10.9527 66.6584 15.2499C66.9484 15.6342 67.1739 16.1059 67.4961 16.4727C68.1727 17.2414 68.7848 17.1715 69.2519 16.2456C69.5113 15.6497 69.7216 15.0301 69.8802 14.394C71.0142 10.6338 72.8329 7.15883 75.2283 4.17494C76.3058 2.86018 77.5224 1.68754 78.8528 0.681252C80.4636 -0.471665 80.963 -0.296976 82.3967 1.01316C86.1474 4.51276 88.9578 9.045 90.5316 14.132C90.7314 14.8332 90.968 15.5214 91.2404 16.1932C91.6915 17.1365 92.3197 17.2064 92.9801 16.4553C93.3023 16.0884 93.5439 15.6168 93.8339 15.2325C96.1849 11.7243 99.3538 8.95705 103.016 7.21449C108.139 5.03093 112.939 5.46761 117.127 9.64257C118.065 10.5433 118.814 11.652 119.322 12.8937C119.831 14.1353 120.088 15.481 120.075 16.8396C120.048 19.4893 119.229 22.058 117.739 24.1588C117.373 24.8142 117.039 25.4907 116.741 26.1852L118.013 25.9232C123.296 24.5498 128.841 24.9706 133.896 27.1285C140.565 29.9933 145.559 34.6574 146.896 42.8501C147.633 47.2584 147.151 51.8045 145.511 55.9165C144.883 57.541 145.06 57.9603 146.542 58.5018C146.848 58.6241 147.202 58.6416 147.524 58.7464C153.678 61.0173 158.269 65.1049 160.154 72.0748C160.755 73.92 160.829 75.919 160.366 77.8106C159.904 79.7022 158.926 81.3986 157.56 82.6781C155.454 84.9427 152.646 86.276 149.683 86.4181C146.72 86.5602 143.814 85.5009 141.532 83.4468C139.631 81.8397 139.551 81.8746 138.31 84.1979C137.47 85.7958 136.208 87.0842 134.686 87.8968C133.164 88.7094 131.453 89.0091 129.773 88.7572C127.207 88.3587 124.846 87.0139 123.087 84.9491C121.219 82.8703 119.624 80.4946 117.9 78.2586L115.967 75.8655C114.84 76.7913 114.872 76.8088 114.357 78.3984C113.481 81.1021 112.009 83.5326 110.069 85.4782C108.129 87.4237 105.779 88.8253 103.225 89.5607C99.097 90.6174 94.7648 90.2084 90.867 88.3938C86.9693 86.5791 83.712 83.4549 81.5752 79.4814C81.1724 78.7652 80.7858 78.0315 80.2865 77.1232L79.191 79.2368C77.18 83.0784 74.1316 86.1592 70.4565 88.0645C66.7814 89.9697 62.656 90.6077 58.6363 89.8926C52.5955 88.6698 48.6327 84.5473 46.2808 78.4857C45.9265 77.5948 45.5398 76.7389 45.1693 75.8655L44.4444 75.9179ZM26.8859 31.2685C13.5317 37.2602 14.8849 54.3967 22.7459 61.1046C24.1949 62.4375 25.945 63.3278 27.8164 63.6839C29.6878 64.0401 31.613 63.8492 33.3938 63.1309C35.2927 62.4585 37.0377 61.3552 38.5126 59.8944C39.9875 58.4335 41.1585 56.6487 41.9476 54.6588C42.687 53.2039 42.9631 51.5251 42.733 49.8827C42.5029 48.2404 41.7795 46.7263 40.675 45.5752C39.4414 44.4214 37.9028 43.7205 36.2795 43.573C34.6561 43.4255 33.0314 43.839 31.638 44.7542C30.6759 45.6338 29.8158 46.6368 29.0767 47.7412C28.7058 48.3174 28.2146 48.7903 27.643 49.1213C26.6926 49.4706 25.7905 48.44 25.8066 47.1124C25.8719 45.63 26.4465 44.2279 27.4175 43.182C32.0568 37.5572 41.6898 38.4481 45.0405 45.0511C45.4593 46.0691 46.1851 46.9021 47.0985 47.4133C48.012 47.9244 49.0587 48.0832 50.0664 47.8635C54.0275 47.6176 57.9623 48.6993 61.337 50.9619C64.7116 53.2244 67.3625 56.5582 68.9298 60.5107C71.0561 66.0307 69.8641 71.0966 67.045 75.8829C66.6546 76.5518 66.0956 77.0853 65.4342 77.4202C65.1346 77.5236 64.8187 77.5599 64.5058 77.5268C64.1929 77.4938 63.8894 77.3921 63.6139 77.228C63.4569 77.1156 63.3224 76.9702 63.2183 76.8002C63.1143 76.6303 63.0428 76.4394 63.0083 76.2389C62.9737 76.0384 62.9767 75.8325 63.0171 75.6332C63.0575 75.434 63.1344 75.2456 63.2434 75.0794C63.5172 74.5728 63.8555 74.1186 64.1294 73.6295C64.6395 72.9718 64.8901 72.1225 64.8268 71.2658C64.7634 70.4091 64.3913 69.614 63.7911 69.0528C62.9223 68.0211 61.8279 67.2434 60.6088 66.7915C59.3897 66.3397 58.0853 66.2282 56.816 66.4674C52.4505 66.9041 49.5187 69.5419 49.0838 73.6644C48.9839 75.1307 49.1801 76.603 49.6586 77.9787C50.1371 79.3545 50.8865 80.6005 51.8545 81.63C53.2243 83.4541 55.0019 84.8676 57.018 85.736C59.0341 86.6044 61.2216 86.8988 63.3722 86.5911C67.7141 86.151 71.7241 83.8838 74.5426 80.2755C77.3612 76.6672 78.7639 72.005 78.4501 67.2884C78.317 62.8894 77.1588 58.5985 75.0833 54.816C73.0261 50.5415 70.4469 46.5871 67.4155 43.0597C60.0531 35.1577 50.3554 30.3264 40.0306 29.4169C35.577 28.9905 31.0912 29.6224 26.8859 31.2685ZM90.0806 47.1648C86.3761 51.9381 83.7947 57.6146 82.5578 63.7074C81.0919 72.6862 84.3297 80.809 91.4659 84.8617C94.5231 86.7384 98.1208 87.2953 101.54 86.4209C104.959 85.5466 107.949 83.3054 109.91 80.1452C113.857 73.7518 110.861 67.0788 103.773 66.4674C102.537 66.253 101.271 66.3701 100.086 66.8086C98.9007 67.2471 97.8327 67.9936 96.9751 68.9829C96.6598 69.2668 96.4002 69.6165 96.2119 70.0113C96.0235 70.406 95.9102 70.8378 95.8787 71.2809C95.8471 71.7241 95.898 72.1696 96.0282 72.591C96.1584 73.0125 96.3654 73.4013 96.6369 73.7343C96.9268 74.2234 97.4101 74.6776 97.4745 75.2016C97.5369 75.537 97.5377 75.8824 97.4769 76.2181C97.4161 76.5539 97.2949 76.8733 97.1201 77.1581C96.8745 77.3647 96.5846 77.5003 96.2775 77.5523C95.9704 77.6042 95.6562 77.5708 95.3643 77.4551C94.4481 76.8162 93.6815 75.955 93.1251 74.9396C89.3557 68.0745 89.9034 61.4365 94.736 55.3225C96.6099 52.7636 99.028 50.7356 101.783 49.4121C104.538 48.0887 107.548 47.5094 110.555 47.7238C111.167 47.7238 111.779 47.7238 112.375 47.7238C112.943 47.796 113.516 47.6642 114.008 47.3487C114.5 47.0331 114.883 46.5512 115.097 45.977C117.385 40.3172 123.828 37.9065 129.595 40.3696C131.338 40.9764 132.838 42.2086 133.848 43.8632C134.391 44.9412 134.715 46.1323 134.799 47.3569C134.749 47.6966 134.621 48.0171 134.427 48.2888C134.232 48.5606 133.978 48.7748 133.687 48.9117C133.22 49.0689 132.527 48.5623 131.963 48.2653C131.77 48.1605 131.673 47.7937 131.561 47.5316C131.09 46.4699 130.38 45.5545 129.495 44.8704C128.611 44.1863 127.581 43.7557 126.502 43.6187C125.284 43.2739 124.002 43.2991 122.796 43.6917C121.59 44.0844 120.507 44.8292 119.665 45.8447C118.824 46.8602 118.256 48.1072 118.024 49.4492C117.793 50.7912 117.906 52.1765 118.351 53.4535C120.526 61.0872 128.629 65.5591 135.282 62.6942C136.995 61.9009 138.531 60.7186 139.787 59.227C141.043 57.7354 141.99 55.9692 142.563 54.0474C146.493 43.0073 140.952 32.1769 130.224 29.9933C127.469 29.4343 124.618 29.3295 122.459 29.1024C108.944 30.5523 97.99 35.8452 90.0806 47.0774V47.1648ZM77.7574 52.5975C77.9435 52.9074 78.1537 53.1996 78.3856 53.4709C79.8837 55.2177 81.5107 55.2178 82.6544 53.0692C85.2643 48.7161 87.2318 43.9481 88.4858 38.9372C90.8538 27.9495 89.5973 17.6082 83.6532 8.15774C81.2369 4.29722 79.4327 4.36711 76.9036 8.07042C73.1938 13.8645 71.1531 20.7221 71.04 27.7748C70.9442 36.5634 73.2844 45.1806 77.7574 52.5101V52.5975ZM56.671 60.5456C53.5529 60.2611 50.4426 61.1832 47.8917 63.1484C45.9032 64.7798 43.9994 66.5293 42.1892 68.389C40.7394 69.8039 39.4668 71.4459 38.017 72.8434C37.1048 73.7044 36.0853 74.4218 34.9886 74.9745C34.5069 75.2831 33.9376 75.3894 33.3885 75.2736C32.8393 75.1577 32.3484 74.8276 32.0085 74.3457C32.4515 73.6126 32.9528 72.9229 33.5066 72.2844C37.2921 68.5462 41.1744 64.9302 44.9116 61.157C49.0999 56.9296 57.6053 55.0081 63.2756 59.4102C63.5817 59.6372 63.9038 59.812 64.4354 60.1613C62.8869 57.2259 60.5428 54.8784 57.7214 53.4377C54.9 51.997 51.738 51.5329 48.6649 52.1084C47.9974 52.2035 47.3696 52.5067 46.8578 52.9811C46.346 53.4555 45.9721 54.0808 45.7815 54.781C44.8782 57.742 43.3238 60.4202 41.2526 62.584C39.1813 64.7479 36.6555 66.3326 33.8932 67.2011C31.4232 67.9953 29.2616 69.646 27.7397 71.9001C26.4272 73.4579 25.3995 75.2719 24.7112 77.2455C24.3212 78.4233 24.2759 79.703 24.5815 80.9098C24.8871 82.1165 25.5287 83.1916 26.4187 83.9883C27.3145 84.855 28.4675 85.3442 29.6679 85.3666C30.8682 85.3891 32.0361 84.9433 32.9589 84.1106C35.0164 82.4767 36.9018 80.6021 38.5809 78.5206C40.4334 76.3196 41.9315 73.7518 43.7357 71.5333C45.1922 69.7209 46.7756 68.0331 48.4716 66.4849C50.0495 64.9886 51.9078 63.8811 53.9185 63.2387C55.9291 62.5964 58.0443 62.4344 60.1183 62.7641C60.5049 62.7641 60.9076 62.7641 61.6003 62.8689C60.294 61.4236 58.5347 60.5632 56.671 60.4583V60.5456ZM112.713 58.9036C113.788 59.5047 114.784 60.2564 115.677 61.1396C119.511 64.8079 123.324 68.5054 127.115 72.232C127.791 72.8784 128.903 73.6295 128.194 74.6426C127.823 75.1492 126.422 75.2017 125.665 74.9047C124.539 74.4245 123.506 73.7194 122.62 72.826C121.203 71.4809 119.978 69.8912 118.593 68.5287C116.79 66.6742 114.897 64.9249 112.923 63.2882C110.282 61.1841 107.018 60.2135 103.757 60.5631C102.091 60.6261 100.499 61.3252 99.2626 62.537C100.793 62.537 102.275 62.4322 103.725 62.537C108.132 63.0653 112.176 65.4336 115.001 69.1401C117.014 71.4983 118.754 74.1186 120.655 76.5817C122.032 78.4695 123.505 80.2716 125.069 81.9794C126.248 83.1711 127.618 84.1184 129.112 84.7744C129.898 85.1158 130.749 85.2421 131.591 85.142C132.433 85.042 133.239 84.7187 133.938 84.2007C134.637 83.6826 135.207 82.9858 135.599 82.1719C135.991 81.358 136.192 80.4519 136.184 79.5338C136.257 77.7734 135.78 76.0377 134.831 74.6077C134.058 73.5072 133.3 72.3892 132.511 71.2887C131.141 69.3775 129.263 67.9688 127.131 67.2535C124.253 66.4074 121.614 64.7967 119.454 62.5672C117.294 60.3377 115.681 57.5596 114.759 54.4841C114.514 53.7239 114.053 53.0674 113.442 52.6092C112.832 52.1509 112.103 51.9144 111.36 51.9337C108.811 51.5508 106.214 51.8775 103.813 52.8829C101.412 53.8883 99.2861 55.5393 97.6356 57.6808C97.104 58.3097 96.653 59.0084 96.1697 59.6722C98.5976 57.8869 101.433 56.8624 104.363 56.7114C107.293 56.5604 110.205 57.2887 112.778 58.8162L112.713 58.9036ZM67.6089 29.2073C67.7097 27.6082 67.5627 26.0022 67.1739 24.4558C65.4863 18.8277 61.8232 14.1463 56.9771 11.4244C54.8031 10.2003 52.3207 9.77724 49.9053 10.2191C44.8149 11.0925 41.6737 16.4727 45.3143 21.8006C45.6654 22.3378 46.0531 22.8459 46.4741 23.3204C48.9883 26.296 52.0433 28.675 55.4467 30.3078C57.3315 31.0764 59.0551 32.2642 60.8915 33.1901C61.4875 33.487 62.5024 33.8888 62.8246 33.6093C63.6944 32.8407 62.8245 31.9673 62.4057 31.3384C60.6337 28.5959 58.7651 25.9057 56.8965 23.233C56.0428 22.0102 55.0762 20.8923 54.2225 19.7393C53.8104 19.1652 53.4992 18.5139 53.3043 17.8178C52.966 16.5601 53.7714 15.7391 54.9151 16.2806C55.8332 16.7181 56.6482 17.3749 57.2992 18.2021C60.0055 21.8181 62.6312 25.5388 65.257 29.2247C65.6597 29.7837 66.0141 30.3776 66.6101 31.3384C67.045 30.2379 67.6733 29.6789 67.6733 29.1199L67.6089 29.2073ZM95.4126 29.0326C98.0544 25.3467 100.664 21.6434 103.386 18.0275C104.032 17.1943 104.849 16.5363 105.771 16.1059C106.866 15.5819 107.736 16.4727 107.381 17.6781C106.916 18.8031 106.32 19.8596 105.609 20.8224C103.338 24.0715 100.954 27.2508 98.731 30.5523C98.1672 31.3908 96.8946 32.4563 97.9094 33.5394C98.9243 34.6224 99.6814 33.0678 100.551 32.6485C102.259 31.8275 103.902 30.7619 105.642 30.0108C109.303 28.3016 112.523 25.6444 115.017 22.2723C115.743 21.5014 116.291 20.5552 116.616 19.5108C116.941 18.4664 117.033 17.3536 116.886 16.2631C116.588 14.6137 115.794 13.1181 114.628 12.0114C113.461 10.9047 111.989 10.2496 110.442 10.1492C107.252 9.80906 104.061 10.7818 101.502 12.8742C97.9494 15.5892 95.264 19.4352 93.8178 23.8793C93.3697 25.6252 93.1474 27.43 93.1574 29.2422C93.1574 29.7662 93.7373 30.3252 94.2044 31.1462C94.6555 30.1156 95.0582 29.5217 95.4126 28.9452V29.0326ZM13.0324 62.8864C9.48605 64.2109 6.52611 66.9282 4.73632 70.5026C1.86896 76.2497 4.73634 81.9445 10.7932 82.5209C11.9004 82.7221 13.036 82.6285 14.1023 82.2481C15.1687 81.8677 16.1338 81.212 16.9146 80.3374C19.2503 77.4376 21.3123 74.2758 23.3581 71.1839C23.5836 70.852 23.4386 70.2406 23.487 69.5594C22.9204 69.5678 22.3551 69.6204 21.7955 69.7166C18.8801 70.4175 16.1349 71.7809 13.7411 73.7168C12.9679 74.4101 12.1184 74.9969 11.2121 75.4637C10.8962 75.6207 10.5528 75.702 10.2053 75.702C9.85776 75.702 9.51435 75.6207 9.19846 75.4637C8.48967 74.7824 8.98904 73.8391 9.52063 73.1404C9.96005 72.5824 10.4337 72.0572 10.9382 71.5682C13.0779 69.549 15.5628 68.0058 18.2516 67.0264C19.1426 66.6275 20.0089 66.1665 20.8451 65.6464C18.3321 62.1178 16.3508 61.4714 13.0324 62.799V62.8864ZM137.311 71.3935C138.922 74.0313 140.71 76.6341 142.547 79.1844C143.723 80.8118 145.387 81.9425 147.251 82.3812C148.981 82.7093 150.763 82.4881 152.38 81.7444C153.998 81.0006 155.382 79.7659 156.368 78.1887C157.094 76.8515 157.314 75.2609 156.98 73.7518C156.231 70.7449 154.675 68.0472 152.51 66.0007C150.344 63.9543 147.667 62.6515 144.818 62.2575C142.66 62.1352 141.242 63.6201 139.889 65.2272C140.292 66.5373 141.371 66.7294 142.273 67.0613C145.033 68.0495 147.573 69.6497 149.731 71.7604C150.37 72.3115 150.915 72.9796 151.342 73.7343C151.457 74.0087 151.516 74.3064 151.516 74.6077C151.516 74.909 151.457 75.2068 151.342 75.4811C151.181 75.7781 150.311 75.8829 149.909 75.6908C148.927 75.2245 147.997 74.6384 147.138 73.9439C144.746 71.9671 142.004 70.5459 139.083 69.769C138.761 69.6701 138.433 69.5942 138.101 69.5419C137.766 69.5619 137.433 69.6027 137.102 69.6642C137.091 70.2201 137.162 70.7744 137.311 71.3062V71.3935Z" fill="#ECBC95"/>
<path id="Vector_2" d="M26.8855 31.2685C13.5313 37.2602 14.8845 54.3967 22.7456 61.1046C24.1945 62.4375 25.9446 63.3278 27.816 63.684C29.6875 64.0401 31.6126 63.8492 33.3935 63.131C35.2923 62.4586 37.0373 61.3552 38.5122 59.8944C39.9871 58.4336 41.1581 56.6488 41.9472 54.6588C42.6866 53.204 42.9627 51.5251 42.7326 49.8828C42.5025 48.2404 41.7791 46.7263 40.6746 45.5752C39.4411 44.4214 37.9024 43.7205 36.2791 43.5731C34.6557 43.4256 33.031 43.839 31.6376 44.7542C30.6755 45.6338 29.8154 46.6368 29.0763 47.7413C28.7055 48.3175 28.2142 48.7904 27.6426 49.1213C26.6922 49.4707 25.7901 48.44 25.8062 47.1124C25.8715 45.6301 26.4462 44.2279 27.4171 43.182C32.0564 37.5572 41.6895 38.4481 45.0401 45.0512C45.4589 46.0691 46.1847 46.9022 47.0982 47.4133C48.0116 47.9245 49.0583 48.0833 50.066 47.8636C54.0271 47.6176 57.962 48.6994 61.3366 50.9619C64.7112 53.2245 67.3621 56.5582 68.9294 60.5107C71.0557 66.0307 69.8637 71.0966 67.0447 75.883C66.6543 76.5518 66.0952 77.0853 65.4338 77.4202C65.1342 77.5236 64.8184 77.5599 64.5054 77.5269C64.1925 77.4938 63.889 77.3922 63.6135 77.228C63.4565 77.1157 63.322 76.9702 63.2179 76.8003C63.1139 76.6303 63.0425 76.4395 63.0079 76.239C62.9733 76.0385 62.9763 75.8325 63.0167 75.6333C63.0571 75.4341 63.134 75.2457 63.243 75.0794C63.5168 74.5728 63.8551 74.1186 64.129 73.6295C64.6391 72.9718 64.8897 72.1225 64.8264 71.2658C64.7631 70.4091 64.3909 69.614 63.7907 69.0528C62.9219 68.0211 61.8275 67.2434 60.6084 66.7916C59.3893 66.3397 58.0849 66.2283 56.8156 66.4675C52.4501 66.9042 49.5183 69.5419 49.0834 73.6644C48.9836 75.1308 49.1797 76.6031 49.6582 77.9788C50.1367 79.3545 50.8861 80.6005 51.8541 81.6301C53.2239 83.4541 55.0015 84.8677 57.0176 85.7361C59.0337 86.6044 61.2212 86.8988 63.3719 86.5911C67.7137 86.1511 71.7237 83.8838 74.5423 80.2755C77.3608 76.6672 78.7635 72.005 78.4497 67.2885C78.3166 62.8894 77.1584 58.5985 75.0829 54.816C73.0257 50.5415 70.4465 46.5872 67.4152 43.0597C60.0527 35.1577 50.3551 30.3265 40.0303 29.4169C35.5766 28.9906 31.0909 29.6225 26.8855 31.2685Z" fill="#487168"/>
<path id="Vector_3" d="M90.0804 47.0774C86.376 51.8507 83.7946 57.5272 82.5577 63.62C81.0918 72.5988 84.3296 80.7217 91.4658 84.7743C94.523 86.6511 98.1206 87.2079 101.54 86.3335C104.959 85.4592 107.948 83.218 109.91 80.0578C113.857 73.6644 110.861 66.9915 103.773 66.3801C102.537 66.1656 101.271 66.2828 100.086 66.7213C98.9005 67.1597 97.8326 67.9062 96.975 68.8955C96.6596 69.1795 96.4001 69.5292 96.2117 69.9239C96.0234 70.3187 95.9101 70.7505 95.8785 71.1936C95.847 71.6367 95.8978 72.0822 96.0281 72.5037C96.1583 72.9251 96.3653 73.3139 96.6367 73.647C96.9267 74.1361 97.4099 74.5902 97.4744 75.1143C97.5368 75.4497 97.5376 75.7951 97.4768 76.1308C97.416 76.4665 97.2947 76.7859 97.12 77.0708C96.8744 77.2773 96.5845 77.4129 96.2774 77.4649C95.9703 77.5168 95.656 77.4834 95.3641 77.3677C94.457 76.7538 93.6912 75.9233 93.125 74.9396C89.3555 68.0745 89.9032 61.4365 94.7359 55.3225C96.6097 52.7636 99.0278 50.7355 101.783 49.4121C104.538 48.0887 107.548 47.5093 110.555 47.7238C111.167 47.7238 111.779 47.7238 112.375 47.7238C112.943 47.796 113.516 47.6642 114.008 47.3486C114.5 47.0331 114.883 46.5512 115.097 45.9769C117.385 40.3172 123.828 37.9065 129.595 40.3695C131.338 40.9764 132.838 42.2086 133.848 43.8632C134.39 44.9412 134.714 46.1323 134.798 47.3569C134.749 47.6965 134.621 48.0171 134.426 48.2888C134.232 48.5606 133.978 48.7748 133.687 48.9116C133.22 49.0688 132.527 48.5623 131.963 48.2653C131.77 48.1605 131.673 47.7936 131.561 47.5316C131.09 46.4699 130.379 45.5545 129.495 44.8703C128.611 44.1862 127.581 43.7557 126.502 43.6187C125.284 43.2739 124.002 43.2991 122.796 43.6917C121.59 44.0843 120.507 44.8292 119.665 45.8447C118.824 46.8602 118.256 48.1071 118.024 49.4491C117.792 50.7912 117.906 52.1765 118.351 53.4534C120.526 61.0871 128.629 65.559 135.282 62.6942C136.995 61.9009 138.531 60.7186 139.787 59.227C141.043 57.7354 141.989 55.9692 142.563 54.0474C146.493 43.0073 140.952 32.1768 130.223 29.9933C127.469 29.4343 124.618 29.3295 122.459 29.1024C108.944 30.5523 97.9898 35.8452 90.0804 47.0774Z" fill="#487168"/>
<path id="Vector_4" d="M77.7568 52.5101C77.943 52.8201 78.1531 53.1123 78.385 53.3836C79.8832 55.1304 81.5102 55.1304 82.6539 52.9818C85.2637 48.6287 87.2312 43.8607 88.4852 38.8498C90.8532 27.8621 89.5968 17.5208 83.6526 8.07041C81.2363 4.20988 79.4321 4.27978 76.903 7.98309C73.178 13.8018 71.1366 20.6922 71.0394 27.7748C70.9437 36.5634 73.2838 45.1806 77.7568 52.5101Z" fill="#487168"/>
<path id="Vector_5" d="M56.6705 60.4583C53.5524 60.1737 50.4421 61.0959 47.8912 63.0611C45.9027 64.6925 43.9989 66.442 42.1887 68.3016C40.7389 69.7166 39.4663 71.3586 38.0165 72.7561C37.1043 73.617 36.0848 74.3344 34.9881 74.8872C34.5064 75.1957 33.9371 75.3021 33.388 75.1862C32.8388 75.0703 32.3479 74.7402 32.008 74.2583C32.451 73.5252 32.9523 72.8355 33.5061 72.1971C37.2916 68.4588 41.1739 64.8429 44.9111 61.0697C49.0994 56.8423 57.6048 54.9208 63.2751 59.3228C63.5812 59.5499 63.9033 59.7246 64.4349 60.074C62.8864 57.1385 60.5423 54.7911 57.7209 53.3504C54.8995 51.9097 51.7375 51.4456 48.6644 52.021C47.9969 52.1162 47.3691 52.4194 46.8573 52.8938C46.3455 53.3682 45.9716 53.9934 45.781 54.6937C44.8777 57.6547 43.3233 60.3328 41.2521 62.4967C39.1808 64.6605 36.655 66.2452 33.8927 67.1137C31.4227 67.9079 29.2611 69.5586 27.7392 71.8128C26.4267 73.3706 25.399 75.1845 24.7107 77.1581C24.3207 78.3359 24.2754 79.6156 24.581 80.8224C24.8866 82.0292 25.5282 83.1043 26.4182 83.9009C27.314 84.7677 28.467 85.2568 29.6674 85.2793C30.8677 85.3017 32.0356 84.856 32.9584 84.0232C35.016 82.3894 36.9013 80.5148 38.5804 78.4333C40.4329 76.2323 41.931 73.6644 43.7352 71.4459C45.1917 69.6335 46.7751 67.9457 48.4711 66.3975C50.049 64.9012 51.9073 63.7937 53.918 63.1514C55.9286 62.509 58.0438 62.3471 60.1178 62.6768C60.5044 62.6768 60.9071 62.6768 61.5998 62.7816C60.2809 61.3683 58.5231 60.5398 56.6705 60.4583Z" fill="#487168"/>
<path id="Vector_6" d="M112.778 58.8162C113.852 59.4173 114.848 60.169 115.742 61.0522C119.575 64.7205 123.388 68.418 127.179 72.1446C127.855 72.791 128.967 73.5421 128.258 74.5553C127.888 75.0619 126.486 75.1143 125.729 74.8173C124.603 74.3371 123.57 73.632 122.684 72.7386C121.267 71.3935 120.043 69.8039 118.657 68.4413C116.854 66.5868 114.961 64.8375 112.987 63.2008C110.347 61.0968 107.082 60.1262 103.821 60.4757C102.155 60.5388 100.564 61.2379 99.3267 62.4497C100.857 62.4497 102.339 62.3449 103.789 62.4497C108.196 62.9779 112.241 65.3462 115.065 69.0527C117.079 71.411 118.818 74.0313 120.719 76.4943C122.096 78.3821 123.569 80.1842 125.133 81.8921C126.312 83.0837 127.682 84.031 129.176 84.687C129.962 85.0284 130.814 85.1548 131.655 85.0547C132.497 84.9546 133.303 84.6313 134.002 84.1133C134.701 83.5952 135.271 82.8985 135.663 82.0846C136.055 81.2706 136.256 80.3645 136.248 79.4464C136.321 77.686 135.845 75.9504 134.895 74.5204C134.122 73.4199 133.365 72.3018 132.575 71.2013C131.206 69.2901 129.327 67.8814 127.195 67.1661C124.317 66.32 121.678 64.7094 119.518 62.4799C117.358 60.2504 115.745 57.4723 114.823 54.3967C114.578 53.6365 114.117 52.9801 113.507 52.5218C112.896 52.0636 112.167 51.8271 111.424 51.8463C108.875 51.4635 106.278 51.7902 103.877 52.7955C101.476 53.8009 99.3503 55.452 97.6998 57.5935C97.1682 58.2223 96.7171 58.921 96.2339 59.5848C98.6623 57.8266 101.489 56.8252 104.406 56.6896C107.324 56.5541 110.219 57.2897 112.778 58.8162Z" fill="#487168"/>
<path id="Vector_7" d="M67.6727 29.1198C67.7736 27.5208 67.6266 25.9148 67.2378 24.3684C65.5502 18.7402 61.887 14.0588 57.0409 11.337C54.867 10.1129 52.3846 9.68983 49.9692 10.1317C44.8788 11.0051 41.7376 16.3854 45.3782 21.7132C45.7293 22.2505 46.117 22.7585 46.538 23.233C49.0522 26.2086 52.1071 28.5876 55.5106 30.2204C57.3953 30.989 59.1189 32.1768 60.9553 33.1026C61.5514 33.3996 62.5662 33.8014 62.8884 33.5219C63.7583 32.7533 62.8884 31.8799 62.4696 31.251C60.6976 28.5085 58.829 25.8183 56.9604 23.1457C56.1066 21.9229 55.1401 20.8049 54.2863 19.652C53.8743 19.0779 53.5631 18.4265 53.3681 17.7304C53.0298 16.4727 53.8353 15.6517 54.979 16.1932C55.8971 16.6307 56.7121 17.2876 57.3631 18.1147C60.0694 21.7307 62.6951 25.4515 65.3208 29.1373C65.7235 29.6963 66.0779 30.2902 66.674 31.251C67.0445 30.2378 67.6727 29.6788 67.6727 29.1198Z" fill="#487168"/>
<path id="Vector_8" d="M95.4123 28.9452C98.0541 25.2593 100.664 21.556 103.386 17.94C104.032 17.1069 104.848 16.4489 105.77 16.0185C106.866 15.4944 107.735 16.3854 107.381 17.5907C106.915 18.7157 106.32 19.7722 105.609 20.735C103.338 23.9841 100.954 27.1634 98.7307 30.4649C98.1669 31.3034 96.8943 32.369 97.9091 33.452C98.924 34.5351 99.6811 32.9804 100.551 32.5611C102.259 31.7401 103.902 30.6746 105.641 29.9234C109.303 28.2142 112.522 25.557 115.017 22.1849C115.743 21.414 116.291 20.4678 116.616 19.4234C116.941 18.3791 117.033 17.2662 116.885 16.1757C116.588 14.5263 115.794 13.0307 114.628 11.924C113.461 10.8173 111.989 10.1622 110.442 10.0617C107.252 9.72164 104.061 10.6944 101.501 12.7869C97.9491 15.5018 95.2637 19.3479 93.8175 23.792C93.3694 25.5378 93.1471 27.3427 93.1571 29.1548C93.1571 29.6789 93.737 30.2378 94.2041 31.0589C94.6552 30.1156 95.0579 29.5216 95.4123 28.9452Z" fill="#487168"/>
<path id="Vector_9" d="M13.032 62.799C9.48567 64.1235 6.52573 66.8409 4.73595 70.4153C1.86859 76.1624 4.73596 81.8571 10.7929 82.4336C11.9 82.6348 13.0356 82.5411 14.1019 82.1607C15.1683 81.7803 16.1334 81.1247 16.9142 80.2501C19.25 77.3503 21.3119 74.1885 23.3577 71.0966C23.5832 70.7647 23.4382 70.1533 23.4866 69.472C22.92 69.4804 22.3548 69.533 21.7951 69.6292C18.8797 70.3301 16.1346 71.6936 13.7408 73.6295C12.9675 74.3228 12.118 74.9096 11.2117 75.3763C10.8958 75.5334 10.5524 75.6146 10.2049 75.6146C9.85738 75.6146 9.51397 75.5334 9.19808 75.3763C8.48929 74.6951 8.98866 73.7518 9.52025 73.0531C9.95967 72.4951 10.4333 71.9698 10.9378 71.4809C13.0775 69.4617 15.5624 67.9185 18.2512 66.9391C19.1423 66.5402 20.0085 66.0792 20.8447 65.5591C18.3317 62.1178 16.3504 61.4714 13.032 62.799Z" fill="#487168"/>
<path id="Vector_10" d="M137.311 71.3063C138.922 73.944 140.71 76.5468 142.547 79.0972C143.723 80.7245 145.387 81.8552 147.25 82.2939C148.981 82.622 150.762 82.4009 152.38 81.6571C153.997 80.9134 155.382 79.6786 156.368 78.1015C157.094 76.7643 157.314 75.1736 156.98 73.6645C156.231 70.6576 154.675 67.9599 152.51 65.9135C150.344 63.8671 147.667 62.5642 144.818 62.1703C142.659 62.048 141.242 63.5328 139.889 65.1399C140.291 66.4501 141.371 66.6422 142.273 66.9741C145.033 67.9622 147.573 69.5625 149.731 71.6731C150.37 72.2243 150.915 72.8923 151.342 73.6471C151.457 73.9214 151.516 74.2192 151.516 74.5205C151.516 74.8217 151.457 75.1195 151.342 75.3939C151.181 75.6909 150.311 75.7957 149.908 75.6035C148.927 75.1372 147.997 74.5512 147.138 73.8567C144.746 71.8799 142.004 70.4586 139.083 69.6817C138.761 69.5828 138.432 69.5069 138.101 69.4546C137.766 69.4746 137.432 69.5154 137.102 69.5769C137.082 70.162 137.153 70.7466 137.311 71.3063Z" fill="#487168"/>
</g>
<defs>
<clipPath id="clip0_173_69">
<rect width="160.685" height="90.2769" fill="white"/>
</clipPath>
</defs>
</svg>
