<svg width="53" height="52" viewBox="0 0 53 52" fill="none" xmlns="http://www.w3.org/2000/svg">
<g id="OBJECTS" clip-path="url(#clip0_173_132)">
<path id="Vector" d="M16.1504 16.8499C16.4091 15.7383 16.6679 14.8165 16.8177 13.8812C17.4805 9.00115 19.8999 4.52638 23.6265 1.28783C25.8053 -0.596423 27.0718 -0.243973 28.8966 1.28783C30.3549 2.46917 31.6506 3.8365 32.7503 5.35457C34.6784 8.04665 35.8917 11.1802 36.2773 14.4641C36.4354 15.4078 36.6537 16.3405 36.931 17.2565C37.748 17.1752 38.4698 17.1616 39.1779 17.0396C45.088 15.9823 51.8287 20.3066 52.7956 25.7561C53.8169 31.6664 51.4338 36.8447 46.0548 38.7289C44.7422 39.3186 43.2776 39.4867 41.8646 39.2097C40.4516 38.9328 39.1603 38.2246 38.1702 37.1836C37.9795 36.9756 37.7747 36.7809 37.5574 36.6007C36.5769 35.8144 35.7871 35.8415 35.1471 36.9124C33.7853 39.1898 32.4235 41.4943 31.2796 43.8801C30.3673 45.7508 29.8089 47.7842 29.0327 49.7227C28.6242 50.7665 28.2565 51.9865 26.8675 52.0814C25.4785 52.1763 24.8929 50.8749 24.4163 49.8311C23.5176 47.8248 22.8775 45.7644 21.9107 43.7175C20.7532 41.3316 19.4459 39 18.0841 36.7227C17.2807 35.3671 16.5589 35.3671 15.3606 36.4787C14.4247 37.3715 13.2965 38.0401 12.062 38.4336C10.8275 38.8271 9.51905 38.9352 8.23625 38.7495C6.95345 38.564 5.73006 38.0896 4.65914 37.3625C3.58821 36.6355 2.69796 35.6748 2.0561 34.5537C-0.667438 30.3514 -0.667435 24.5902 2.50548 20.998C3.87513 19.3119 5.67412 18.0225 7.71484 17.2643C9.75557 16.5061 11.9633 16.3068 14.1078 16.6872C14.6525 16.755 15.2789 16.7686 16.1504 16.8499ZM24.8112 42.7415C24.9294 42.2975 25.0069 41.8438 25.0427 41.3859C24.961 39.6914 24.8929 37.9834 24.7295 36.3025C24.5364 32.6242 23.6106 29.0208 22.006 25.7018C19.7182 21.4724 16.164 19.073 11.2208 19.3712C9.66917 19.3628 8.14722 19.7943 6.83292 20.6153C5.51863 21.4363 4.46634 22.6128 3.79916 24.0073C3.0378 25.4824 2.7214 27.1452 2.88813 28.7952C3.05485 30.4453 3.69757 32.012 4.73878 33.3066C5.38807 34.2135 6.27047 34.9299 7.29351 35.3807C8.31655 35.8315 9.44257 36 10.5535 35.8687C11.2756 35.8509 11.9736 35.6068 12.5482 35.1711C13.1228 34.7355 13.5447 34.1304 13.7537 33.4422C13.8987 32.7995 13.8249 32.127 13.5439 31.5307C13.2628 30.9343 12.7905 30.4479 12.2013 30.1481C11.6344 29.7503 11.1097 29.2961 10.6352 28.7925C10.3884 28.5932 10.2301 28.3053 10.1944 27.9909C10.1587 27.6765 10.2486 27.3607 10.4446 27.1116C10.6182 26.847 10.8853 26.657 11.193 26.5792C11.5007 26.5013 11.8265 26.5414 12.106 26.6914C12.5381 26.8393 12.9396 27.0644 13.2907 27.3556C15.1016 28.8025 16.7954 30.3889 18.3565 32.1002C20.8166 35.0034 22.8102 38.2683 24.2665 41.779C24.4215 42.114 24.6037 42.4359 24.8112 42.7415ZM28.3246 42.9312C28.5055 42.7558 28.6654 42.5602 28.8012 42.3483C30.2677 38.9018 32.1963 35.6687 34.5343 32.7373C36.1267 30.516 38.1851 28.6659 40.5669 27.315C41.3159 26.8947 42.0921 26.6914 42.6776 27.5454C43.2632 28.3994 42.6776 29.0365 42.0921 29.5788C41.5065 30.121 41.0027 30.3921 40.4852 30.8259C40.0684 31.0895 39.7314 31.461 39.5103 31.9006C39.2892 32.3402 39.1924 32.8314 39.2302 33.3216C39.268 33.8117 39.4389 34.2825 39.7247 34.6834C40.0106 35.0843 40.4005 35.4003 40.8529 35.5975C42.1125 36.2118 43.5483 36.3679 44.9114 36.0386C46.2745 35.7092 47.4788 34.9154 48.3154 33.7946C49.1811 32.7376 49.7821 31.491 50.0689 30.1574C50.3558 28.8239 50.3202 27.4415 49.9651 26.1243C49.61 24.8071 48.9456 23.5927 48.0267 22.5813C47.1077 21.5698 45.9604 20.7902 44.6794 20.3066C39.1507 18.0699 33.3359 21.7978 31.3886 25.4578C28.5969 30.7175 28.202 36.4787 28.0114 42.267C28.0114 42.4297 28.1748 42.6194 28.3246 42.9312ZM26.4726 29.1721L26.9901 29.0637C27.2488 28.4537 27.5212 27.8436 27.7663 27.2336C28.5261 24.9677 29.7819 22.8981 31.4431 21.1742C32.2582 20.412 32.8722 19.4617 33.2309 18.4073C33.5895 17.3528 33.6817 16.2267 33.4993 15.1283C33.0547 10.9113 31.0848 6.99914 27.9569 4.12099C26.7177 2.96874 25.9279 2.96874 24.7432 4.12099C21.8217 6.96396 19.987 10.7317 19.5548 14.7759C19.3604 15.7333 19.3947 16.7228 19.6549 17.6646C19.9151 18.6065 20.3939 19.4743 21.0528 20.1982C23.0583 22.2963 24.5904 24.7966 25.5466 27.5319C25.8156 28.0999 26.125 28.648 26.4726 29.1721Z" fill="#ECBC95"/>
<path id="Vector_2" d="M24.8112 42.7414C24.9293 42.2974 25.0068 41.8437 25.0427 41.3858C24.961 39.6913 24.8929 37.9833 24.7295 36.3024C24.5363 32.6241 23.6105 29.0207 22.0059 25.7018C19.7182 21.4724 16.164 19.073 11.2207 19.3712C9.66912 19.3627 8.14717 19.7942 6.83287 20.6152C5.51858 21.4362 4.46629 22.6128 3.79911 24.0073C3.03775 25.4823 2.72135 27.1451 2.88808 28.7952C3.0548 30.4452 3.69752 32.012 4.73873 33.3065C5.38802 34.2135 6.27042 34.9299 7.29346 35.3807C8.3165 35.8314 9.44252 36 10.5535 35.8686C11.2756 35.8509 11.9736 35.6068 12.5482 35.1711C13.1228 34.7354 13.5446 34.1304 13.7536 33.4421C13.8987 32.7994 13.8249 32.127 13.5438 31.5306C13.2628 30.9343 12.7904 30.4479 12.2012 30.1481C11.6344 29.7502 11.1097 29.296 10.6352 28.7925C10.3883 28.5932 10.23 28.3053 10.1943 27.9909C10.1587 27.6765 10.2485 27.3607 10.4445 27.1116C10.6182 26.847 10.8852 26.6569 11.1929 26.5791C11.5006 26.5013 11.8265 26.5414 12.1059 26.6913C12.5381 26.8392 12.9396 27.0643 13.2906 27.3556C15.1015 28.8025 16.7953 30.3889 18.3564 32.1001C20.8165 35.0033 22.8102 38.2683 24.2665 41.7789C24.4214 42.1139 24.6036 42.4359 24.8112 42.7414Z" fill="#487168"/>
<path id="Vector_3" d="M28.3249 42.9311C28.5058 42.7557 28.6657 42.5601 28.8015 42.3482C30.2681 38.9016 32.1966 35.6686 34.5346 32.7372C36.127 30.5159 38.1854 28.6658 40.5672 27.3149C41.3162 26.8946 42.0924 26.6913 42.678 27.5453C43.2635 28.3993 42.678 29.0364 42.0924 29.5786C41.5068 30.1209 41.003 30.392 40.4855 30.8258C40.0687 31.0894 39.7317 31.4609 39.5106 31.9005C39.2896 32.3401 39.1928 32.8313 39.2305 33.3215C39.2683 33.8116 39.4392 34.2824 39.7251 34.6833C40.0109 35.0842 40.4009 35.4002 40.8532 35.5974C42.1128 36.2117 43.5487 36.3678 44.9117 36.0385C46.2748 35.7091 47.4791 34.9153 48.3157 33.7945C49.1814 32.7375 49.7824 31.4909 50.0693 30.1573C50.3561 28.8237 50.3205 27.4414 49.9654 26.1242C49.6104 24.807 48.9459 23.5926 48.027 22.5812C47.108 21.5697 45.9608 20.7901 44.6798 20.3065C39.151 18.0698 33.3362 21.7977 31.3889 25.4577C28.5973 30.7174 28.2024 36.4786 28.0117 42.2669C28.0117 42.4296 28.1751 42.6193 28.3249 42.9311Z" fill="#487168"/>
<path id="Vector_4" d="M26.4726 29.172L26.9901 29.0636C27.2488 28.4536 27.5212 27.8435 27.7663 27.2335C28.5261 24.9676 29.7819 22.898 31.4431 21.1741C32.2582 20.412 32.8722 19.4616 33.2309 18.4072C33.5895 17.3527 33.6817 16.2266 33.4993 15.1282C33.0547 10.9113 31.0848 6.99905 27.9569 4.1209C26.7177 2.96865 25.9279 2.96865 24.7432 4.1209C21.8217 6.96387 19.987 10.7316 19.5548 14.7758C19.3604 15.7332 19.3947 16.7227 19.6549 17.6646C19.9151 18.6064 20.3939 19.4742 21.0528 20.1981C23.0583 22.2962 24.5904 24.7965 25.5466 27.5318C25.8156 28.0998 26.1251 28.6479 26.4726 29.172Z" fill="#487168"/>
</g>
<defs>
<clipPath id="clip0_173_132">
<rect width="53" height="52" fill="white"/>
</clipPath>
</defs>
</svg>
